# xmcd
#
# Track frame offsets: 
#        150
#        14160
#        28292
#        40890
#        57562
#        76127
#        87255
#        100637
#        115700
#        128910
#
# Disc length: 2005 seconds
#
# Revision: 0
# Processed by: cddbd v1.5.1PL2 Copyright (c) Steve Scherf et al.
# Submitted via: ExactAudioCopy v0.95b4
#
DISCID=7e07d30a
DTITLE=the ink spots - if i didn't care
DYEAR=1900
DGENRE=Big Band
TTITLE0=if i didn't care
TTITLE1=we three (my echo, my shadow and me)
TTITLE2=java jive
TTITLE3=i don't want to set the world on fire
TTITLE4=my prayr
TTITLE5=shine on harvest moon
TTITLE6=paper doll
TTITLE7=unitl the real think comes along
TTITLE8=do i worry?
TTITLE9=old man river
EXTD=
EXTT0=
EXTT1=
EXTT2=
EXTT3=
EXTT4=
EXTT5=
EXTT6=
EXTT7=
EXTT8=
EXTT9=
PLAYORDER=
